<svg xmlns="http://www.w3.org/2000/svg" viewBox="0 0 532.34 547.93"><defs><style>.cls-1{fill:#fff;}.cls-2{fill:#980f07;}</style></defs><title>trogons_logo</title><g id="White_Center_Background" data-name="White Center Background"><rect class="cls-1" x="17.38" y="12.85" width="496.67" height="518"/></g><g id="Red_Logo" data-name="Red Logo"><path class="cls-2" d="M70.57,27.47c3.05,0,6.07.46,9.11.62a34.57,34.57,0,0,0,4.77-.15c.9-.08,1.81,0,2.69-.06a28.18,28.18,0,0,1,3.31-.24c.33,0,.58.15.9.16A15.48,15.48,0,0,0,93,27.55a54.31,54.31,0,0,1,6.12,0c5.33,0,10.68-.74,16,.46s10.76.75,16.12.71c5.65,0,11.29,0,16.94.07,3.89,0,7.89,0,11.54-1.34a4.11,4.11,0,0,1,2.31-.44c.3.07.57.21.87.29a5.19,5.19,0,0,0,2.28-.23c.72-.1,1.52-.06,2.25-.11a39,39,0,0,1,5.51-.09c2.56.2,5.24.73,7.61-.26.91-.37,1.72-1,2.62-1.33a8.54,8.54,0,0,1,1.85-.48,40.56,40.56,0,0,1,6.6-.41l18,.17c2.09,0,6.33-.08,8.42-.09,5.64,0,11.34,1.4,16.82,2.42,2.57.47,5.16.9,7.76,1.16A45.52,45.52,0,0,0,255,27.8a4.35,4.35,0,0,1,3.19.79,2.27,2.27,0,0,0,.57.26,4,4,0,0,0,1.94-.13,81.39,81.39,0,0,1,11.49-2l16.65-1.47a33,33,0,0,1,7.36-.09c1.87.26,3.67.83,5.52,1.2a48,48,0,0,0,8.56.67c17,.29,33.87-.25,50.86-1a142.31,142.31,0,0,1,27.45,1.08,17.24,17.24,0,0,0,5.11.29,16.68,16.68,0,0,0,2.49-.68L402,24.83a22,22,0,0,1,5.72-1.36,21.58,21.58,0,0,1,3.93.26Q423.4,25.24,435,27.42q6,1.13,11.91,2.4c3.79.82,6.43.68,10.18.7,2,0,4.08.17,6.12.15s3.83-.26,5.75-.26c2.68,0,5.35.15,8,.24.82,0,1.63.14,2.45.14,4,0,8,.15,12.08.33a2.67,2.67,0,0,1,1.16.22,5.43,5.43,0,0,1,.83.69,4.52,4.52,0,0,0,3.54.54c1.91-.29,3.69.07,5.52-.56,2.49-.86,5.27-1.36,7.74-.42a3.94,3.94,0,0,0,1.78.47,10,10,0,0,0,1.83-.7,4.62,4.62,0,0,1,1.39-.11,136.57,136.57,0,0,0,14.45,0,59.52,59.52,0,0,1,10.84.4,14.34,14.34,0,0,1,2.84.51,5.15,5.15,0,0,0,1.27.32,8.68,8.68,0,0,1,1,0,3.47,3.47,0,0,1,1.47.89c1.29,1,2.7,1.2,4.23,1.61a10.35,10.35,0,0,1,6.82,6.08A10.15,10.15,0,0,0,560.1,44c1,1.31,2.53,2.75,3.62,4a9.4,9.4,0,0,1,1.95,5.42c.11,1.39,0,2.82.13,4.2a13,13,0,0,1-.71,5.18c-.88,3,.56,5.75.91,8.73a9.45,9.45,0,0,1,.09,2.43,9.52,9.52,0,0,0-.3,2.58c.17,1.09.86,1.95.93,3.07.1,1.4-.09,2.79-.09,4.19v59.62c0,1,0,2,0,3.06a6,6,0,0,1-.15,2.5c-.06.13-.15.25-.2.39a2,2,0,0,0-.07.68c0,1.4-.89,2.5-1,3.86-.09,1.64.17,3.27.16,4.91,0,4.93,0,9.92-.22,14.85-.21,4.39-.77,8.77-.73,13.16a31.54,31.54,0,0,1-.08,4c-.2,1.7-.77,3.33-1.1,5a25.64,25.64,0,0,0-.06,5.81,16.92,16.92,0,0,1-.9,5.38,11.2,11.2,0,0,0-.23,4.5c.09.32.22.63.33.94a12.2,12.2,0,0,1,.48,3.91,2.39,2.39,0,0,1-.65,1.86c-.33.38-1,1-1.12,1.54-.38,2.08.11,1.67.45,3.33a10.35,10.35,0,0,1,0,2.58c.15,1.88,1.52,4,1.69,4.55.68,2,1.68,4.63,1.09,6.7.15,3.19.57,6.59.57,9.7l0,5.54c0,1.19,0,2.37,0,3.56s0,2.36,0,3.53a4,4,0,0,1-.17,1.42c-.24.6-.47.55-1,.8-1.56.75-.38,1-.92,3.27a14.74,14.74,0,0,0,.17,3.27c.4,1.66-.16,1.56,0,3.44.08,1.32-.38,2.66-.4,4-.07,4.44,0,8.89-.11,13.33a14.6,14.6,0,0,1-.66,4.37,16.55,16.55,0,0,0-1,7.08c.19,1.93-.19,3.92,0,5.83a15,15,0,0,1-.09,3.28c-.06.56-.11,1.12-.12,1.68,0,.3,0,.59,0,.89s0,.3,0,.46.06.28.07.42a.34.34,0,0,1,0,.1.24.24,0,0,1-.23.22.19.19,0,0,1-.1,0,1.47,1.47,0,0,1-.41-.22s-.09,0-.12,0,0,.07,0,.11a1,1,0,0,0,.1.29l.08.23c.06.13.12.26.19.39a5.05,5.05,0,0,1,.37,1c.07.23-.36.32-.47.64s.13.37.35.78c.06.11,0,.26.06.38s.14.23.19.36a1.38,1.38,0,0,1,.05.7l0,.41a10.69,10.69,0,0,0,.07,2.26c.22,1.42.46,2.83.67,4.25a17,17,0,0,1,.14,2.76c0,1.06-.1,2.11-.1,3.17,0,3,.12,5.94.11,8.92,0,2-.2,4-.19,5.94,0,1.82.25,3.64.24,5.45,0,3.07-.22,6.13-.27,9.19-.08,5.06-.08,10.11-.15,15.17,0,.52.3.59.59,1.06a2.61,2.61,0,0,1,.18.78c-.09,2.51-.24,5-.28,7.54,0,3.15,0,6.29,0,9.44-.09,6.18-.33,12.36-.25,18.53a31.57,31.57,0,0,1-1,9.83,9.21,9.21,0,0,0,0,2.69c0,.21-.36.43-.47.58-.24.31,0,.64.19.91a4.16,4.16,0,0,1,.5.61.35.35,0,0,1,.06.16c0,.14-.12.24-.21.34a.9.9,0,0,0-.27.53c0,.31,0,.63,0,.94-.09.47-.5.8-.55,1.29s.11,1.27.1,1.9q-.14,16-.33,32c0,1.86-.32,3.7-.38,5.56a24.9,24.9,0,0,0,.14,4c.2,1.65.63,3.26.89,4.9a18.35,18.35,0,0,1,.33,3.46c-.05,2-.24,4-.44,6-.16,1.65-1,3.08-.67,4.95.4,2.65.74,5.45-.12,8.16a20.07,20.07,0,0,0-1,3.65c-.42,3.49.4,3,.56,6.46a30.57,30.57,0,0,0,1.59,4.79c.83,1.08,2.75,1.2,2.94,1.83.43,1.44-.58,4.38-.78,5.89-.34,2.55-1.37,4.49-2.08,7.36a14.1,14.1,0,0,0-.33,3.89c.12,3.78-1.66,7.16-1.69,10.85a25.42,25.42,0,0,1-1.39,7.41c-.77,2.43-.7,5.79-2.53,7.87-.63.71-1.41,1.26-2.08,1.92a18.44,18.44,0,0,1-1.42,1.38,8.56,8.56,0,0,1-2.36,1.18,81.05,81.05,0,0,1-13.14,3.66c-4.23.8-8.6-.32-12.9.88a17.47,17.47,0,0,1-3.81.91,12.47,12.47,0,0,1-3.47-.52c-9.78-2.3-19.89-1.58-29.68.22-2.51.46-2.36.45-4.49-2.19-.15-.18-3.36-1-3.59-1.08-1.87-1-3.26-.42-5.16-.17-2.41.32-5.14,2.07-6.87.07-.32-.39-.13-.73-.55-1.08a2.88,2.88,0,0,0-1.1-.48,9.74,9.74,0,0,0-3.23-.17,142.16,142.16,0,0,1-15.85.72c-1.1,0-2.35-.1-3-1a2.11,2.11,0,0,0-.51-.6,1.53,1.53,0,0,0-.71-.14c-10.3-.24-20.6-.13-30.9-.21-4.42,0-8.84-.11-13.26-.28-19.59-.76-39.23-.32-58.85-.38-1.88,0-3.75.11-5.63.21-4,.23-8,.58-12,.63s-8.29.07-12.44,0a47,47,0,0,1-10.73-.89,51.79,51.79,0,0,0-5.88-1.4c-1.92-.22-3.6.33-5.48.47-3.69.29-7.4.11-11.1.2a23.19,23.19,0,0,0-3.12.28,68.76,68.76,0,0,1-8.95,1.24c-9.6.18-19.2,0-28.8.12-2.33,0-4.56-.72-6.82-1.14a58,58,0,0,0-6.58-1,1.08,1.08,0,0,0-1.14,1,2.58,2.58,0,0,1-.76,1.82,4,4,0,0,1-2.72.61c-6.35,0-12.68,1.57-19,1.06a27.9,27.9,0,0,1-3.42-.5,35.5,35.5,0,0,0-5.91-.55l-11.84,0H122.14a1.51,1.51,0,0,1-.87-.18,1.9,1.9,0,0,1-.38-.42c-1.24-1.58-3.21-1.23-5-1.34a18.54,18.54,0,0,0-10.16,2.29,19.56,19.56,0,0,1-6,1.85,28.72,28.72,0,0,1-5.33,0,14,14,0,0,1-2-.23,24.41,24.41,0,0,0-3.74-.65c-2.39,0-4.8.35-7.17.18a4.56,4.56,0,0,1-3.83-2.06.23.23,0,0,0-.12-.1c-1.53-.5-2.85-1.3-4.12-1.22-2.58.15-4.85-.84-7.22-1.41-1.31-.31-2.46-1.67-3.72-1.73-2.92-.13-5.89-.8-8.8.12-2.43.77-5.68.55-7.56-1.32l-1.36-1.35a.58.58,0,0,1-.22-.41,1.42,1.42,0,0,0,0-.22.37.37,0,0,0-.12-.22,4.28,4.28,0,0,0-1.37-1,2.38,2.38,0,0,1-1-.6c-.26-.33-.29-.81-.62-1.06A1.4,1.4,0,0,0,41,555c-1.69-.44-3.24-.63-4.17-2.26-.44-.75-.42-2.3-.65-3.14-.45-1.67.59-3.84.67-5.61a35.59,35.59,0,0,0-.39-6.1c-.23-1.73-.49-3.46-.63-5.19s.12-3.64.12-5.48a6.67,6.67,0,0,1,.31-3.17,5.08,5.08,0,0,0,.64-2.82c-.29-4.42-1-8.25-.12-12.63.53-2.56,1.92-7.4,2-10,.18-6.11,2-14.08,2-20.2,0-1.09.39-2.17.49-3.27a32.94,32.94,0,0,0,.12-3.58c0-.84-.23-1.67-.31-2.51-.32-3.9-.58-7.81-1-11.71-.22-2.19-.8-4.35-.93-6.54-.23-4-.31-8.11-.34-12.17,0-7.08-.06-14.16,0-21.24,0-3.24,1.4-6.42,2.15-9.53a10,10,0,0,0,.35-3.17c-.16-1.75-1.5-2.9-1.69-4.65-.37-3.33-1.14-6.63-1.45-10s-.29-6.6-.36-9.91c-.14-6.49,0-12.91,2.16-19.18A22.12,22.12,0,0,0,41,351c-.11-.93-.57-1.84-.6-2.76a65.85,65.85,0,0,1,1.37-16.62c.61-2.65,2.17-5.12,1.74-8-.16-1-.44-2.05-.61-3.09-.31-1.87-.58-3.75-.87-5.62a37.74,37.74,0,0,1-.66-4.31c-.18-4.54-.38-9.08-.32-13.62,0-3.79.18-7.59.33-11.38.07-1.84.14-3.68.22-5.53a11.62,11.62,0,0,0,.14-2.56c-.19-1-1-1.9-1.33-2.87a9.59,9.59,0,0,1-.38-2.51,23.1,23.1,0,0,0-1.56-6.7c-1.21-3.08-3.13-6.07-2.95-9.37.08-1.6.66-3.15.6-4.75-.08-1.82-1-3.52-1.09-5.34-.14-2.94,1.8-5.72.6-8.62a5.51,5.51,0,0,1-.48-1.34,4.73,4.73,0,0,1,.14-1.4,16.48,16.48,0,0,0,0-4l-.7-8.57c-.28-3.37-.51-7,1-10,.84-1.65,1.59-2.71,1.78-4.54s1.17-3.74,1.28-5.7c.09-1.66-.55-3.22-.62-4.85A23.27,23.27,0,0,1,39,191.7c.4-2.07.45-4.19.94-6.24.43-1.81,1.21-3.53,1.71-5.32.84-3,.18-6.16-.07-9.19a19.86,19.86,0,0,1,0-3.18,17,17,0,0,0,.39-3,7.73,7.73,0,0,0-1.16-2.63,14.7,14.7,0,0,1-1.27-3,24.87,24.87,0,0,1-.69-5c-.08-1.56-.35-2.94.53-4.37s.82-3.4,1.06-5.15a26.38,26.38,0,0,0,.06-3.21c.09-3.17.29-6.34.24-9.5,0-2.39-.56-4.76-.56-7.14,0-8.94.48-17.89.37-26.82,0-3.53-.24-7.1-.13-10.62A96,96,0,0,0,40.49,77c-.16-2.11.21-4.25.2-6.37,0-2.34-.28-4.67-.23-7,0-.47.93-1.18,1.35-1.31,1.2-.39,1.11-.93,1.08-2.11,0-1.64-.08-3.11-.06-4.75,0-1.16-.22-2.31-.15-3.47a3.82,3.82,0,0,1,.24-1.38c.14-.31.36-.55.51-.85a3.71,3.71,0,0,0,.31-1.08c.09-.59.09-1.19.14-1.78.07-.93.28-1.83.36-2.75s-.05-1.8,0-2.71c0-1.78,1.4-3.17,2.8-4.12,1-.69,2.16-1.19,3.19-1.86a9.15,9.15,0,0,0,3.56-3.89c.13-.3,0-.65.1-1a1.83,1.83,0,0,1,.82-1,7.86,7.86,0,0,0,1.1-.79c.3-.3.51-.68.95-.79a12,12,0,0,1,3.11-.71,6.9,6.9,0,0,0,2.43.1c.26-.1,8,0,8.3.12m-.1,34.69c-.09,1.09-1.64,2.16-1.81,2.26-1,.63-1.67,3.18-1.36,4.46a12.36,12.36,0,0,1,0,2.58c0,1.43-.93,2.83.15,4.33A4.83,4.83,0,0,1,68,78.52c-.09,5.85-.07,11.7-.48,17.57-.55,7.74-.15,15.55-.12,23.32a8.11,8.11,0,0,0,.47,3,7.61,7.61,0,0,1,.41,4.68c-1.62,7.61-3.07,15.24-2.86,23.09,0,1.25,0,2.6-1.32,3.47a2.72,2.72,0,0,0-.86,1.78,54.89,54.89,0,0,0-.66,6.64c-.27,18,.35,36-.87,54-.66,9.67-.17,19.41-.07,29.12,0,1.75.18,3.8,1.1,5.15,1.69,2.48,1.42,5.07,1.42,7.7q0,34.36,0,68.72a7.55,7.55,0,0,0,1,4.14c1,1.34,1.58,2.4,1,4.44-1.81,6.57-2.28,13.58.09,20,.31.81-.26,1.63-.54,2.44-.53,1.57-1.47,3.13-1.52,4.72-.18,5.1-.1,10.22-.07,15.34a20.09,20.09,0,0,0,.21,2.57c.23,1.31.52,2.62.74,3.94.14.78.16,1.57.31,2.35.28,1.44.91,2.88.86,4.3-.13,3.8-.62,7.59-.81,11.4-.21,4.16-.2,8.33-.36,12.49-.32,8.68.37,17.35-.8,26.06-1,7.32-.82,14.79-1.08,22.2a23.07,23.07,0,0,1-.25,2.49c-.47,2.64-1.13,5.26-1.35,7.92-.23,2.9,0,5.85,0,8.77v20.93a30.48,30.48,0,0,1-.06,5c-.23,1.37-1.14,2.6-1.51,4a8.65,8.65,0,0,0,.06,2.58c0,.34.15.76,0,1-1,1.53-.61,3.15-.46,4.77,0,.33,0,.67,0,1,0,.54.13,1.08.16,1.31a7.65,7.65,0,0,0-.32,2.1c.17,1.14.79,2.25.78,3.37,0,3,0,6,1.41,8.81.1.19.2.44.37.51.57.26,1.21.38,1.74.69a10.55,10.55,0,0,0,5.5,1.63c33.38-.29,66.77.63,100.14-.66.48,0,1-.19,1.42-.18,2.82,0,5.59-1,8.5,0a19.64,19.64,0,0,0,6.1.74c7.83.08,15.66,0,23.5,0,.59,0,1.56,0,2.15-.12,3.65-.41,7.3-1,11-1.13,6.2-.28,12.4-.3,18.61-.33,1.5,0,3,.55,4.51.59,17.8.37,35.6,0,53.42.77,22.38.91,44.84.22,67.26.22a6.77,6.77,0,0,1,1.75.09c3.27.91,6.48,2,9.78,2.74a35.4,35.4,0,0,0,6,.38c2.55.12,5.11.34,7.66.29s5-.58,7.45-.57c7.33,0,14.65.17,22,.29q7.88.14,15.75.32c3.89.09,7.79.26,11.68.31,11.28.14,22.56-.19,33.83.57,6.41.44,12.87.08,19.31.08,1.2,0,2.3,0,2.62-1.62.08-.39.85-.8,1.36-.91a11.91,11.91,0,0,1,3.3-.33c3.37.25,6.73.69,10.1,1,2.18.18,4.38.24,6.57.28a4.92,4.92,0,0,0,4.54-3.48c.49-1.73,1.89-2.63,3-3.8.81-.83,1.7-1.59.72-2.93a3.32,3.32,0,0,1-.39-1.82q-.2-21.45-.33-42.91c0-7.94.61-9.07.62-17a23.75,23.75,0,0,0-.36-2.78,31.54,31.54,0,0,1-.29-4.34,2,2,0,0,1,.09-.7,2.65,2.65,0,0,1,.57-.81c1.46-1.73,1.43-3.87,1.58-6,.42-6.1.82-12.21,1-18.32.19-7.84-.23-15.7.68-23.52.34-3,.53-6,1-9,.6-4,1.49-8,1.33-12.14-.2-5.3.3-10.63-1-15.89a32.5,32.5,0,0,1-.72-6.62c-.1-3.35,0-6.72,0-10.08.06-3.06.3-6.11.3-9.16q0-28.14,0-56.27a11.46,11.46,0,0,1,.1-1.43,33.52,33.52,0,0,0,.83-5c.06-17.92,0-35.84.06-53.76,0-3.07.37-6.14.65-9.21.38-4.16.86-8.31,1.25-12.47.36-4,.62-7.92,1-11.88.5-5.32,1.07-10.63,1.58-15.94.18-1.85-.07-3.81.45-5.55a27.72,27.72,0,0,0,.85-8.19c0-2.47.08-4.94,0-7.4-.07-1.66.31-3.27-.76-5-.57-.91-.8-1.89-1.76-2.15a1,1,0,0,1-.67-1c0-9.63,0-19.1,0-28.57a35.42,35.42,0,0,0-.35-4.11c-.4-3.29-1.16-6.58-1.18-9.87-.13-14.75,0-29.5-.08-44.25,0-1.67-.24-3.33-.4-4.94a.57.57,0,0,1,.47-.59c1-.16,1.91-.27,2.75-.47,1.08-.26,2.18-.92,1.92-2a3.46,3.46,0,0,0-2-2.13c-2.51-.87-5-1.85-7.8-1.61-.21,0-.56,0-.65-.19-.86-1.37-2.2-1.47-3.61-1.47-2.58,0-5.16.15-7.72,0-5.48-.43-10.95-1.07-16.43-1.54-2.54-.22-5.11-.21-7.66-.34-5.73-.31-11.47-.6-17.2-1a56.77,56.77,0,0,1-5.79-.81c-4.73-.83-9.4-1.82-14.29-1.8-23.52.09-47-.17-70.57,0-7.35.05-14.29-2.18-21.49-2.72a22.37,22.37,0,0,0-7.13.25,22,22,0,0,1-10.95.21,15.13,15.13,0,0,1-2.52-.9L347,46.83c-.31-.15-.79-.25-.95-.59a3.68,3.68,0,0,1-.15-.47,2,2,0,0,0-.67-1c-.23-.21-.73-.61-1.07-.53a.63.63,0,0,0-.23.12c-.33.24-.74.63-1.19.55s-.82-.56-1.1-.87a2.94,2.94,0,0,0-1.11-.73c-.91-.26-1.85-.43-2.77-.64l-1.6-.39a.79.79,0,0,0-1,.73c-.06,1.3-.95,1.73-2.23,1.81-.84.06-1.68.17-2.5.31a2.8,2.8,0,0,0-1.29.44,22.08,22.08,0,0,1-2.47,2.11c-4.19,2.31-8.43,4.56-13.49,3a9.47,9.47,0,0,0-2.18-.37c-4.92-.2-9.87.47-14.76-.6a2.94,2.94,0,0,0-3.08.79c-.58.62-2.12.3-3.22.46-3,.41-6,.54-8.87,1.39a20,20,0,0,1-5.8,1.14c-7.9,0-15.77.25-23.64.93-7.48.64-15,.73-22.51,1-3.78.15-7.59.07-11.36.37-4.27.33-8.56.41-12.82.87a28.16,28.16,0,0,1-5.56-.3c-4.21-.39-8.41-1-12.63-1.2-3.24-.16-6.5.21-9.75.25-4,.06-8.05,0-12.07,0-2,0-3.93.17-5.89.36-3.84.37-7.67,1.17-11.51,1.18-21.22,0-42.44-.15-63.66-.28-2.77,0-5.55-.16-8.31-.33-1.47-.08-2.93-.44-4.4-.47-.81,0-2.2.26-2.32.69a5.09,5.09,0,0,0,.23,3.2c.3.71,1.33.8,1.38,2.37" transform="translate(-34.41 -23.45)"/><path class="cls-2" d="M72.63,73.74a.59.59,0,0,1,.75-.62,44.65,44.65,0,0,0,4.43,1.28c1.76.37,2.29-.28,2.11-2.25,0-.18-.3-.62.25-.54l1.91.62a1,1,0,0,0,1.25-1l-.1-1a.59.59,0,0,1,.51-.63c1.62-.21,3.25-.48,4.89-.55a18.43,18.43,0,0,1,3.08.49,5.85,5.85,0,0,0,4.79-1.06c2.78-2.34,5.71-3.86,9.6-3.75,5.21.15,10.43-.34,15.65-.55,2.61-.11,5.22-.3,7.82-.31q35.73,0,71.46,0c3,0,6,.58,9,.89,2.12.23,4.24.49,6.37.66,1.33.11,2.65.12,3.69-1,.24-.26.9-.22,1.36-.22,3.38,0,6.76.06,10.14,0a11.22,11.22,0,0,0,2.69-.94,6.45,6.45,0,0,1,1.3-.3,59.43,59.43,0,0,0,6.28-.72,3.93,3.93,0,0,0,3.1-2.41.67.67,0,0,1,.63-.42c3.07,0,6.12.26,9.11-.36A55.52,55.52,0,0,1,272,58.09,77.6,77.6,0,0,0,284.61,58c2.36-.14,4.72-.48,7.09-.59,1.26-.06,2.53.25,3.8.27q11.24.2,22.47.33c3.22,0,6.44.13,9.65,0,4.22-.19,8.43-.49,12.62-1,1.42-.17,2.75-1.11,4.14-1.63a3.61,3.61,0,0,1,1.38-.23c1.9.07,3.8.29,5.7.3,7.13,0,14.27-.08,21.4.06a81.54,81.54,0,0,1,8.5.95c2.39.29,4.78.84,7.18.89q10,.18,19.95,0c2.51,0,5-.6,7.51-.86a8.92,8.92,0,0,1,1.16-.06c9.11,0,18.23,0,27.35,0q6.09,0,12.17.33c4.77.24,9.54.52,14.29,1,1.46.15,2.81,1.18,4.28,1.48a44.21,44.21,0,0,0,7,1c6.87.32,13.75.52,20.63.64a12.88,12.88,0,0,0,5.61-.72c2.1-1,3.88,0,5.79,0a13.55,13.55,0,0,1,2.55.14,2,2,0,0,1,1.33.79c0,.38-.18.6-.37.94-.36.67-.46,1,.49,1.52,1.69.93,3.22.34,4.77,0a4,4,0,0,1,3.44.49c2.36,1.62,4.75,3.17,6.9,4.59a.74.74,0,0,1,.33.57c.15,2.14.37,4.21.4,6.3.07,4.45,0,8.9,0,13.35a3.25,3.25,0,0,1-.29,1.53,14.34,14.34,0,0,0-1.63,7.15q0,13,0,26.07a15.45,15.45,0,0,0,2.92,9.66,2.4,2.4,0,0,1,.29,1.35c0,7.61,0,15.23,0,22.85,0,1.49-.86,3.13-.47,4.44s-.17,1.75-.26,2.68a.33.33,0,0,1-.51.25c-1.13-.69-1.82,0-2.31,1.26a8,8,0,0,0-.57,5.2c.2.79-.35,1.75-.31,2.63.15,3.49.29,7,.62,10.48.43,4.46,1,8.9,1.55,13.35.2,1.8.34,4.76.35,6.57q0,9.3,0,18.59,0,10.08-.1,20.17t-.08,20.3c0,3.33-.09,6.66.14,10a.52.52,0,0,1,0,.28.59.59,0,0,1-.15.2,3,3,0,0,1-1.86.47,1.79,1.79,0,0,0-.73.14,1.53,1.53,0,0,0-.7,1.16,47.05,47.05,0,0,0-.61,5.42c-.18,4.76-.54,9.54-.26,14.29.42,7.28-.38,14.69,2.34,21.8a18.75,18.75,0,0,1,1,4.63,20.79,20.79,0,0,1,.44,2.51c0,8,0,16,0,24a7.39,7.39,0,0,1-.35,2.16c0,.09-.14.52-.16.55a20.67,20.67,0,0,0-1.06,6.44c0,7.72-.34,15.46.09,23.16.35,6.38,1.15,12.75.81,19.14-.24,4.69,0,9.46-1.2,14.07a5,5,0,0,0,0,1.29v17.23a.83.83,0,0,1-1.2.74c-.35-.18-.66-.29-.8-.18a3.92,3.92,0,0,0-1.21,2.18,22.09,22.09,0,0,0-.63,4,50.89,50.89,0,0,0-.29,8c1.11,11.38.52,22.78.54,34.17,0,10.36-.38,20.73-.59,31.1a3.42,3.42,0,0,0,0,1.28c1.81,4.6.59,9.4.92,14.1a16.32,16.32,0,0,1,0,1.84,1.7,1.7,0,0,1-1.06,1.56c-4,1.63-8,3.33-12.06,4.79a14.56,14.56,0,0,1-5.3.7,49.19,49.19,0,0,0-13.42,1.36,11.83,11.83,0,0,0-1.54.57c-4.19,1.91-8.59.95-12.93.71-2.48-.14-4.95-.61-7.43-.63-10-.07-20,0-29.94-.06-3.22,0-6.45.44-9.68-.54a21.27,21.27,0,0,0-5.55-.38c-5.45-.14-10.9-.3-16.36-.31-4.21,0-8.43.18-12.65.3-2.66.08-5.33.4-8,.27-3.06-.15-6.09-.67-9.13-1a40,40,0,0,0-4.72-.5,14.39,14.39,0,0,1-5.43-.94,8.56,8.56,0,0,0-3.13-.37c-18.24,0-36.48,0-54.72,0-6.41,0-12.89.29-19.24-.42-13-1.44-26.08-.21-39.08-.94-13.25-.76-26.48-.75-39.73-1a20.19,20.19,0,0,1-11.16-4,8.6,8.6,0,0,0-3.13-1.22c-1.8-.39-3.69-1-5.44-.74s-3.45.75-5-.71a1.27,1.27,0,0,0-1.19.17c-2.86,2.93-6.88,3.08-10.48,4.22a14.61,14.61,0,0,1-2.82.66,6.69,6.69,0,0,0-3.35,1.72,3.74,3.74,0,0,1-1.7.87c-2.06.21-4.14.23-6.21.37-21.81,1.52-43.65.85-65.48.94-7.6,0-15.2-.14-22.79-.32-3.67-.09-7.33-.42-11-.62-1,0-1.45-.38-1.39-1.5.1-2.09,0-4.18,0-6.27,0-3.23-.38-6.49,1.1-9.57a4.28,4.28,0,0,0,.18-1.73c0-7.25-.11-14.5,0-21.75.08-5.83.38-11.65,1-17.44.29-2.59.4-5.2.58-7.8.21-2.91.47-5.81.64-8.72s.12-5.65.35-8.47c1.18-14.83.87-29.7,1-44.56.05-5.68.71-11.35.87-17,.07-2.52-.51-5.05-.58-7.59-.07-2.73.11-5.46.19-8.2,0-.31.11-.63.11-.94q.18-22.9.31-45.81A72.83,72.83,0,0,0,71,318a36.25,36.25,0,0,0-1.33-5.24,8.09,8.09,0,0,1-.22-1.77c0-19.5.08-39,0-58.5,0-6.27-.55-12.54-1-18.8a39.27,39.27,0,0,0-1-5.11,43.47,43.47,0,0,1,0-16,22.68,22.68,0,0,0,.32-3.58c0-10,0-20,0-30,0-2.57-.56-5.24,1.31-7.53,1.55-1.92,1.07-4.38,1.22-6.56a65.19,65.19,0,0,0,.1-9.58c-.48-6.32.8-12.38,2-18.48a50.78,50.78,0,0,0,1.12-8.3c.23-9.69.92-19.43.15-29.05C73.16,92.22,73.25,85,73,77.67,72.92,76.37,72.77,75.07,72.63,73.74Zm380.8,317.05.05.06,3.87-3.15c-.5-.35-.92-.83-1.12-.75-1.48.59-2.85.06-4.24-.27a1,1,0,0,0-.43,0c-1.24.31-2.49.59-3.71.93-2,.55-2.24.37-2.21-1.81-.62.27-1.16.48-1.69.73-2.06,1-3.88,2.51-6.35,2.44-.68,0-1.37.15-2.05.16-1.83,0-3.65,0-5.48,0a1.86,1.86,0,0,1,.95-.72c3.5-1.79,7-3.62,10.48-5.36,4.78-2.38,9.56-4.76,14.41-7a20.13,20.13,0,0,1,4.74-1.13c2.48-.45,5-.89,7.46-1.17,2.05-.23,4.12-.22,6.52-.33a3.59,3.59,0,0,1-3,1.69c-2.52.29-4.37,2.14-6,4-.14.16.06.85.31,1.08a2.59,2.59,0,0,0,3.85-.43,2.13,2.13,0,0,1,.91-.54c2-.78,4.07-1.44,6-2.35A10.42,10.42,0,0,0,479,375l-.18-.62-2.15-.32a2.26,2.26,0,0,1,1.26-.44c1.84-.14,3.68-.24,5.52-.38a5,5,0,0,0,.75-.24,10.34,10.34,0,0,1,1.61-.36,30.77,30.77,0,0,0,4.2-.23c1.11-.23,1.84-.24,2.15,1.11,2.9-1.06,6.24-.75,8.4-3.64H497a16.66,16.66,0,0,0-3.12-.9c-1.84-.12-3.69,0-5.54,0-1.54,0-3.08-.17-4.62-.28l-5.7-.43c-4-.33-8-.91-12-.9a71.58,71.58,0,0,0-9.61,1.16c-1,.14-2,.43-3,.65,3-2.54,5.36-5.79,9-7.44a22.53,22.53,0,0,0,3.17-2.13l2.84-1.94a48.63,48.63,0,0,1,4.72-3.11,28.21,28.21,0,0,1,4.4-1.42c1.83,1.51,3.63-.13,5.41-.37.52-.07.91-1.21,1.36-1.86l-.4-.37-2,.4c-.81-1.62-1.52-2-3.61-1.4-2.35.64-4.64,1.48-7,2.15a55.22,55.22,0,0,0-11.12,4.7c-2.34,1.27-4.72,2.46-7,3.85s-4.39,2.93-6.56,4.45c-2.62,1.83-5.24,3.64-7.8,5.56s-5.21,4.08-7.92,6.22c.11-.63.37-1.13.25-1.51a2.53,2.53,0,0,1,1.33-3.07c1.6-.95,2.1-2.44,2.55-4,.1-.33-.07-1-.3-1.1a1.38,1.38,0,0,0-1.26.11,12.73,12.73,0,0,0-1.34,2l-1.71-.55c-1.7,2.32-3.19,4.56-4.91,6.6-1,1.17-2.45,2-3.57,3a6.42,6.42,0,0,1-3.72,1.83,7.76,7.76,0,0,0-3.18,1.88c-.91.72-1.55,1.78-2.47,2.49-1.22.94-2.6,1.68-3.91,2.51l-.45-.49c4-3.3,7.88-6.63,9-12-1.62,1.4-3,3-4.57,4.43a10.05,10.05,0,0,1-3.12,2.05c-2.29.89-5,.84-6.69,3.07-.28.38-.95.46-1.41.71s-1,.41-1.17.78A37.41,37.41,0,0,0,397.9,390c-1.57,4-.67,3.26-4.84,3.05a16.78,16.78,0,0,0-2.06-.3,8.41,8.41,0,0,0-3.05.65c-1.95,1-3.06.72-4.17-1.16s-2.16-3.62-4.74-3.74a4.06,4.06,0,0,1-3-1.28c-1.47-2.37-3.75-3.66-5.9-5.17-1.09-.76-2.14-1.59-3.19-2.4-.59-.45-1.15-.94-1.73-1.39a23.82,23.82,0,0,1-3.83-3,55.37,55.37,0,0,1-4.41-6.67c-1.06-1.74-2-3.52-3-5.31-1-1.94-2.2-3.83-3.25-5.77-.85-1.57-1.65-3.17-2.48-4.75a12.47,12.47,0,0,1,2.67,2.36c1.77,1.86,3.49,3.77,5.35,5.53a6.42,6.42,0,0,0,2.23.83l.49-.68c-2.08-3.25-4.16-6.49-6.32-9.84l.76-.08c1.08-2.28-.47-4-.87-5.87a2.7,2.7,0,0,1-.09-.48c-.46-4.23,1.58-7.64,3.81-10.9s5.76-4.59,9-6.43a6.72,6.72,0,0,1,2.47-1c3.1-.31,6.22-.58,9.33-.64a14.53,14.53,0,0,1,3.83.83,11.46,11.46,0,0,0,2.62.86c4.38,0,8.55,1.22,12.8,2a73.15,73.15,0,0,0,11.75.84,47.31,47.31,0,0,0,6.8-.85c-.05.33-.07.63-.14.92-.65,2.56-1.37,5.11-2,7.68-.7,3,.59,5.87,1.09,8.77.3,1.7,1.53,1.36,2.67.95.07.66.13,1.25.18,1.84l.4.18,2.52-2.76-1-1.63c1.28-1,2.43-2,3.67-2.88,1.61-1.12,1.27-2.81,1.25-4.56a13.52,13.52,0,0,0,1.21.67c.34.15.71.21,1.05.36,1.25.53,1.4,1.62.91,3a3.06,3.06,0,0,0,.3,2.62c.9.95,1.16-.55,1.75-.89.08,0,.2,0,.46-.06-.15,1.6,1,1.49,2,1.48s1.8-.19,2-1.42c.05-.33.56-.63.92-.86s.89-.32,1.2-.61c.74-.69,1.27-.49,1.6.33a14.23,14.23,0,0,1,1.13,3.47c.11,1,0,2.39-.56,2.91-1.39,1.23-1.79,2.38-1,4.16a9.91,9.91,0,0,1-1.45-1,6.88,6.88,0,0,0-1.53-.51,4.07,4.07,0,0,0,.12,1.46,3.87,3.87,0,0,0,1.34,1.73,8.32,8.32,0,0,0,3.23.91c.3,0,.69-1.1,1.12-1.83.27-.05,1.12,0,1.23-.27.74-1.85,2.87-1.75,3.95-3,.76-.87,1.72-2.08,1.63-3.05a7.37,7.37,0,0,1,.8-3.77,5.52,5.52,0,0,0,.57-2.76,71.59,71.59,0,0,0-1.73-7.4,7.73,7.73,0,0,0-3.09-4.32c-1.91-1.34-3.64-2.93-5.48-4.36-2.08-1.61-3.24-1.68-4.55-.44a21.18,21.18,0,0,1-2.05,1.74c-.25.19-.81.35-1,.21a2.19,2.19,0,0,1-.47-1.07c-.25-.88-.47-1.77-.75-2.89a60.94,60.94,0,0,0,10.67-11.48,30.61,30.61,0,0,0,5.52-15l.87.43c3.07,1.37,3,1.36,5-1.32a1,1,0,0,1,1.18-.3,7.61,7.61,0,0,1,1.66,1.25,22.79,22.79,0,0,0,9.71,5.47c2.6.67,5.2,1.42,7.84,1.93,1.44.29,3.47.78,4.35.07,1.36-1.1,2.32-.81,3.72-.19,0-.58.13-1.05,0-1.36-.47-.93-4-2.26-4.88-1.84a3.36,3.36,0,0,1-3.47-.56c-.78-.5-1.51-1.08-2.32-1.53-1.45-.81-3-1.5-4.4-2.35-.9-.54-1.7-1.27-2.55-1.9-1-.74-2.11-1.4-3.05-2.23a1.82,1.82,0,0,1-.33-1.5,6.34,6.34,0,0,0-1.41-5.89c-.05-.06,0-.17-.07-.29l1.16.17c.1-1.35-1.82-3.49-3.47-3.79a2.74,2.74,0,0,1-2.22-2.42,33.68,33.68,0,0,1-.55-3.52,5.48,5.48,0,0,1,1.34,0c2.51.62,4.54-.46,6.58-1.69a2.89,2.89,0,0,1,2.06-.23,7.71,7.71,0,0,1,3.38,1.69c1.41,1.6,3.14,1.3,4.81,1.33.51,0,1.25-.74,1.48-1.3.16-.39-.34-1.09-.64-1.6-.13-.21-.48-.3-.73-.44.57-1.76,1.57-.61,2.13-.3,2.15,1.16,2.62,1.08,3.79-1.43a8.37,8.37,0,0,0,.12,1.67,3.73,3.73,0,0,0,.71,1c.26-.27.69-.5.74-.8a10.44,10.44,0,0,0,.17-2.67c-.1-1.15-.13-2.54-2-1.89-.2.07-.74-.3-.82-.56a5.71,5.71,0,0,1-.27-2.35,2,2,0,0,0-1.52-2.2c-1.55-.34-1.87-1.51-2.41-2.66s-1-2.92-2.07-3.65a22.16,22.16,0,0,1-4.64-4.74c-1.57-2-3.15-3.93-5.72-4.73a11.13,11.13,0,0,1-1.9-1.12,20.6,20.6,0,0,0-3.82-2c-3.24-1-6.57-1.61-9.82-2.55a17.89,17.89,0,0,1-3.27-1.68,14.24,14.24,0,0,1-2.77.53,35.88,35.88,0,0,1-5-.34c-1.19-.15-2.39-.5-2-2.27-3.38-.26-5.27-1.7-8.58-1.95a5.73,5.73,0,0,1-1.68-.61.61.61,0,0,1-.33-.39l-.42-1.53c-2.64.58-4.75-.76-6.89-1.87a75.78,75.78,0,0,0-11.32-5,42.26,42.26,0,0,1-5.51-2.66c.87-1.64,2.08-.6,3.06-.67s2.08.23,3.21-.46c.74-.47,1.79,1.52,3.29.3a40,40,0,0,1-3.87-1.47c-2.33-1.17-5.43-.43-7.18-3-.07-.11-.3-.1-.44-.17-2.81-1.43-6.09-1.77-8.61-4-2.3-2-5-3.49-7.26-5.53-1.66-1.51-3.82-2.83-4.07-5.62h1.93l-1.2-2.88c3.69,2.18,7.27,4.55,11.94,3.67-1.08-.85-2.36-1.35-3.41-2.17-1.41-1.08-3.28-2.2-3.76-3.68-.65-2-.16-4.35-.16-7.14,3.77,3.65,7.09,7.41,12.72,7.6l-1.62-4.14.38-.23q1.91,2,3.8,4c.47.5.9,1.44,1.39,1.47,1.7.1,2.06,1.38,2.74,2.49s1.45,2,2.18,3l.33-.24c-.36-1.15-.72-2.31-1.09-3.46l.56-.25c2,1.74,2.38,5,5.29,5.84l-.35-3.41.54-.2,1.72,2.49c.27.39.45.93.81,1.13,2.07,1.13,4.2,2.13,6.27,3.26,1.36.74,2.57,1.76,4,2.41,2.87,1.36,6,1.23,9.1,1.36a6.13,6.13,0,0,0,5.94-3.33c.58-1.07,1.16-2.4-.46-3.48a6.18,6.18,0,0,1-1.84-2.38c-1.08-2-3.48-2.26-4.92-3.78-.17-.18-.8.14-1.2.1a28,28,0,0,1-2.89-.44c-.61-.13-1.17-.53-1.77-.6-.9-.1-1.85.11-2.72-.06-.58-.12-1.56-.7-1.53-1,.14-1.93-1.33-2.68-2.4-3.74-.6-.6-1.15-1.24-1.5-1.62a11.74,11.74,0,0,1,2.14-1.56,3.54,3.54,0,0,1,2.33-.31,10.82,10.82,0,0,1,3,2c2.16,1.88,4.76,2.65,7.45,3.31,2.32.57,4.62,1.14,6.06,3.37.84,1.3,1.86,2.48,2.81,3.7.73.93,3.35,1,3.83-.09.66-1.49,1.73-1.52,3-1.4a14.76,14.76,0,0,0,2.73.15c1.15-.1,2.6,0,3.35-.69,1.31-1.14,2.56-2.29,4-3.33a10.87,10.87,0,0,0,3.48-4.63,36.29,36.29,0,0,1,3.5-6,7.94,7.94,0,0,0,.65-2.17c.17-.65.13-1.53.55-1.92,1.32-1.24,1.12-2.47.24-3.91a6.65,6.65,0,0,1-.73-1.66,5,5,0,0,0-5.55-3.47c-1.95.39-3.76,1.59-5.88.8-.22-.08-.57.25-.88.36a10.35,10.35,0,0,1-7.37.14c-4.28-1.74-7.77-4.77-11.61-7.24a9.37,9.37,0,0,1-4-5.84l1.66-.33c-.36-1.42-.63-2.77-1-4.07-.72-2.33-1.67-4.56-4-5.82a55,55,0,0,0-15.05-5.41c-6-1.29-11.35-3.55-14.45-9.33a4.72,4.72,0,0,0-.79-.89l-.42.15c1.43,3-1,6.55,1.61,9.36-8.81.71-14.26-5.74-20.89-9.78a31.49,31.49,0,0,1,5.45-1,50,50,0,0,1,7.13-.12,70.11,70.11,0,0,1,10.76,1.29c3.31.76,6.45,2.25,9.65,3.45a4.47,4.47,0,0,0,5.19-1.56c1.54-2.34,1.51-3.55-.2-5.35a1.47,1.47,0,0,1-.27-2.19,17.54,17.54,0,0,1,6.49-6,28.21,28.21,0,0,1,12.39-3.23,8.92,8.92,0,0,0,2.69-1c-.44-.81-.67-1.89-1.33-2.38-3.33-2.47-6.66-5-10.18-7.12a97.9,97.9,0,0,0-12.62-7,102.15,102.15,0,0,0-13.5-4.23,58.93,58.93,0,0,0-8.23-1.6c-2.54-.32-5.13-.18-7.68-.45a9.49,9.49,0,0,0-4.57.6c-1.29.46-3.15-.9-4.67-.71-1.81.22-3.89,0-5.39,1.6-.23.24-.9.11-1.36.06a6.28,6.28,0,0,0-5.87,3c-.28-.21-.61-.64-.81-.58-1.91.54-3.81,1.15-5.68,1.82-.14,0-.2.89,0,1.18,1.1,1.7,2.27,3.35,3.46,5,.66.91,1.41,1.76,2.24,2.8-1.9.44-2-1.06-2.57-1.76-1.15-1.36-1.52-1.58-3-.5-.85.64-1.63.56-2-.21a3.68,3.68,0,0,1,0-2.3c.55-2.2-.05-3-2.16-2.26a29.06,29.06,0,0,0-4.81,2.38c-2,1.12-2,1.16-.49,2.82.05,0,0,.18,0,.44-3-1.48-5.13-.07-7.15,1.91-.95.93-2,1.82-2.9,2.76-.43.43-.78,1-1.17,1.43a9.69,9.69,0,0,1-1.46,1.71A23.77,23.77,0,0,0,320,127a1.28,1.28,0,0,0,.05,1.19c.19.22.76.11,1.16.15l1.49.13a15,15,0,0,1-3.45,1.59c-1.63.6-3.37,1.06-4,3a38.55,38.55,0,0,1-1.86,4.56c-.6,1.21-.49,1.89.84,1.88s2.35.13,3.52.2a23.88,23.88,0,0,1-2.29,1.58c-.57.47-1.37,1.33-1.26,1.84.34,1.58-.7,2.2-1.58,3-.43.39-1.12.77-1.2,1.23-.24,1.42-1.24,1.67-2.35,2a4.52,4.52,0,0,0-2.7,5.48l9.23-3.71.16.37c-.5.26-1,.5-1.5.79-1.89,1.18-3.8,2.31-5.61,3.59a2.1,2.1,0,0,0-.86,1.71c.15.51,1,.92,1.61,1.14a7.16,7.16,0,0,0,1.75.09c.59.05,1.18.17,2.12.32a14.83,14.83,0,0,1-1.95,1.66,27.14,27.14,0,0,0-3.51,2.62c-5.79,5.17-6.28,3.91-4.73,7.75.61,1.51,1.19,1.62,2.32.41,1-1.06,1.91-2.18,2.94-3.17.24-.23.84-.08,1.11-.09a17.67,17.67,0,0,1-1.11,3,14,14,0,0,1-2.18,2.74c-.67.66-1.72,1-2.28,1.68a34.59,34.59,0,0,0-3.08,4.58c-.84,1.49-1.48,3.1-2.21,4.65l.28.32c.46-.16,1-.18,1.35-.48,2.15-2,4.3-4,6.33-6.11a2.29,2.29,0,0,1,1.94-1c.93,0,2.1-.31,2.07-1.54-.06-2.52,1.59-3.79,3.34-5a16.44,16.44,0,0,1,2.09-1c-.39,1.45-.68,2.35-.84,3.27-.07.43,0,1.11.23,1.3a1.6,1.6,0,0,0,1.34-.09c2.58-1.25,5.14-2.56,7.7-3.86l5-2.51.23.41-3.27,2.08c-1,.59-2.18,1-2.81,1.79a9.1,9.1,0,0,1-5.34,3.21,2.81,2.81,0,0,0-1.17.45c-2.05,1.75-4.17,3.45-6.07,5.37s-4.06,3.17-4.65,6.36c-.45,2.4-2.89,4.44-4.5,6.59-1.15,1.53-2.38,3-3.61,4.45a20.09,20.09,0,0,1-1.63,1.56l-.48-.31c-.13,1.16-.3,2.31-.36,3.47,0,.42.16,1.09.44,1.21a1.52,1.52,0,0,0,1.3-.3q5.49-4.65,10.9-9.39c1-.85,1.77-1.85,2.66-2.78l.37.34c-2.23,2.69-4.39,5.43-6.72,8a5.36,5.36,0,0,0-1.45,4.7,1.64,1.64,0,0,1,0,1.06c-2.22,3.16-3.75,6.84-6.86,9.36-1.32,1.07-3,1.9-3.36,3.79a11,11,0,0,0-.08,1.72c.59-.15,1.4-.11,1.72-.48,4.2-4.89,8.38-9.8,12.48-14.79,2.61-3.18,5.08-6.49,7.61-9.75l.45.27q-1.83,4.57-3.68,9.16c0,.09-.15.14-.21.23-.56.78-1.07,1.6-1.69,2.32-.41.48-1,1.17-1.48,1.14a2.92,2.92,0,0,0-3.1,2.18c-.77,1.87-1.57,3.73-2.33,5.61a23.25,23.25,0,0,1-6.08,8.32c-2.95,2.71-6,5.27-9,7.9-.58.5-1.26,1-.29,1.76,1.22.94,1,1.66-.29,2.29a2,2,0,0,0-.87.68c-.57.94-2.07,1.33-1.82,3.28,1.77-.95,3.23-1.88,4.82-2.54,1.37-.57,3-1.4,4.28-1.1,1.85.44,2.83-.47,4-1.35a1.35,1.35,0,0,0,.25-1.15c0-.18-.6-.25-.93-.35s-.45-.1-1.13-.25l6.16-4.65c2,2.51,2,2.44,4.57,1.36,2.28-.95,3.93-2.32,4.42-4.89.28-1.43.84-2.8,1.11-4.23a1.89,1.89,0,0,0-.5-1.5c-1.15-1.11-.66-1.88.4-2.55.66-.43,1.55-.6,2.06-1.15a2.22,2.22,0,0,0,.52-1.91,2.19,2.19,0,0,0-1.87-.57,8.94,8.94,0,0,0-2.29,1.15c-.54-1.45.4-2.16,1.22-2.88.56-.49,1.47-.82,1.7-1.42.84-2.26,2.7-3.25,4.8-4.2a9.8,9.8,0,0,1,1.17,6.13,39.6,39.6,0,0,1-3.61,10.19c-3.09,6.34-7.89,11-13.51,14.9-3.07,2.11-6.66,3.46-10,5.13-1.69.83-3.32,2-5.11,2.36-4.37.81-8.18,2.85-12.09,4.73-1.25.59-1,1.38-.21,2.12a11.83,11.83,0,0,0,10,3.14,46.62,46.62,0,0,0,15.74-5c3.34-1.76,6.91-3.37,9.71-5.81a43.73,43.73,0,0,0,10.45-14.27c2.14-4.47,4.08-9.06,5.8-13.71a44.63,44.63,0,0,0,3.11-12.44c.29-4.3,0-8.65.09-13,0-.12,0-.25,0-.37.35-2.29.68-4.58,1.12-6.85.68-3.45.86-7,2.57-10.21a2.75,2.75,0,0,0,.2-1.55c-.5-2.55,1-4.33,2.3-6.21.55-.81,1.25-1.52,1.73-2.36.9-1.58,1.7-3.23,2.66-5.08,4.55,2.76,9.15,4.75,14.5,4.71a12.57,12.57,0,0,1-3.1,2.42c-3.75,2-7.85,2.48-12,2.55-1.93,0-3,1.1-4.13,2.85,4.07,1.38,8,1.14,12.4.67-.57.81-.83,1.63-1.32,1.81-3.41,1.19-6.7,3.15-10.64,2,.83.77,1.18,2.09,2.84,1.61.62-.18,2,.15,2,.47a4.31,4.31,0,0,1-.45,2.39c-.18.44-.77.71-1.14,1.09-1.85,1.9-3.77,3.75-5.52,5.74-1.17,1.33-.94,2.34.43,3.35l.6-.49c2.11-1.7,4.16-3.49,6.37-5,.59-.41,1.71-.06,2.58,0a13.13,13.13,0,0,1-.33,1.91c-1.69,4.92-4.06,9.69-3.31,15.14,0,.32.1.63.17,1.08l1.75-1.88c-1.15,4.72-2.18,9.64-3.55,14.45-1.57,5.5-1.29,10.71,1.86,15.79.35-5.58,1.17-11,5-15.5a48.4,48.4,0,0,0,3.87,6.29,56.27,56.27,0,0,0,6.93,6.79c1.92,1.58,4.26,2.64,6.3,4.08a11.66,11.66,0,0,1,3.63,3.33,38.28,38.28,0,0,1,3.15,7.87c.93,3.35,1.46,6.82,2.11,10.24a27.25,27.25,0,0,1,.42,3.49,6.35,6.35,0,0,1-.34,1.5,3.81,3.81,0,0,0-.23,1.31,19.1,19.1,0,0,1-.6,9.19,3.38,3.38,0,0,0-.06.85,1.64,1.64,0,0,0,1.15-.8c1-1.95,1.87-4,3.05-5.88s2.36-3.44,2.68-5.67c.44-3,1.2-5.9,1.83-8.84a6.43,6.43,0,0,1,.32-.71,6.6,6.6,0,0,0,.6-2.17c-.1-1.79-.4-3.58-.66-5.61a39.57,39.57,0,0,1,5.63,2.94,9.67,9.67,0,0,1,2.79,3.91,30.85,30.85,0,0,1,1.81,12.1c-.08,1.23,0,2.46,0,3.68l.43,0c.29-.56.64-1.11.88-1.7A14.65,14.65,0,0,1,391.9,259a9.84,9.84,0,0,0,2.05-6.41c0-.59,0-1.19,0-2.16.71.55,1.06.78,1.36,1.06,5.12,4.76,7.19,11,8.49,17.6a15.32,15.32,0,0,1-.25,4.19c-.29,3.34-.6,6.67-.89,10-.09,1-.12,1.94-.18,3a11.9,11.9,0,0,0,2.77-1.89,12.91,12.91,0,0,0,1.37-3.11l1.23.94a10.52,10.52,0,0,0,3.85-8.05c0-3,.33-6.05.52-9.23a9.49,9.49,0,0,1,2.5,1.13,20.38,20.38,0,0,1,6.15,11.17,32.21,32.21,0,0,1-.86,15.62,8.65,8.65,0,0,1-5.88,6.26c-3.21,1-6.48,1.88-9.65,3-4.45,1.58-8.75.84-13-.56-1.32-.43-2.63-.89-3.94-1.33a45.63,45.63,0,0,1-5.61-1.89c-1.29-.63-2.39-1.39-3.85-.57-.47-1-1.09-1.8-.07-2.84.27-.28-.14-1.33-.35-2-.33-1-1-2-1.07-3-.09-2-.67-3-2.58-3.45a4.75,4.75,0,0,1-1.06-.37c-1.76-.95-3.48-2-5.3-2.82a16.77,16.77,0,0,0-3.32-.8c-.71,3.54-1.56,6.9,2.09,8.82.5-.11,1-.38,1.36-.25s.76.78.68,1a1.79,1.79,0,0,1-1,1c-.41.13-.95-.17-1.43-.22a5.24,5.24,0,0,0-1.53,0,4.59,4.59,0,0,0-1.13.47c-.52-.4-.84-.85-1.09-.82-1.52.21-3,.49-4.54.81-2.25.49-4.48,1.08-6.74,1.55a3.11,3.11,0,0,1-2,0,37.42,37.42,0,0,1-6.83-4.32c-1.51-1.35-2.83-.26-4.18-.57-.05.81-.1,1.63-.16,2.43,0,.07-.16.12-.44.32-.87-2.16-2.54-1-3.53-.43s-1.54,2-2.43,3.34c-4.12-2.67-8.09-6.66-14.29-5.54,4.76,1.77,6,6.72,9.34,9.81L321,298.05c.09,2.77,2.61,2.88,4.17,4.43-3.15.67-5.7-.43-8.59-1.24l1.81-2.14c-.29-.31-.6-.62-.6-.62a13.89,13.89,0,0,1-2.11,1.45,3.79,3.79,0,0,1-2.3.51A57,57,0,0,1,308,298c-1.57-.74-3.12-1.53-4.71-2.23a24.64,24.64,0,0,0-11.87-1.86c-1.06.07-2.73.34-3,1a3.28,3.28,0,0,1-3.22,2.31c-.15,0-.39.58-.39.89s.45.53.63.5c1.75-.33,3.49-.72,5.23-1.08a7.45,7.45,0,0,1,1.23-.18c1.5-.1,2.56,1.2,3.76,1.44,2.27.45,3.65,2,5.45,3.08,5.09,3,10.34,5.65,15.72,8.56a13.31,13.31,0,0,1-.6,1.32c-1.07,1.88-2.16,3.75-3.25,5.61-.13.23-.28.54-.48.6-2,.56-1.36,2-1.37,3.64,1.47-1.24,4.11.36,4.54-2.51,0-.16.43-.28.68-.38,1.1-.46,2.22-.91,3.76-1.53-.4.66-.59,1.28-.82,1.29-1.75.12-1.65,1.39-1.68,2.56-.05,2.35-.06,4.69-.09,7s-.05,4.73-.14,7.1a1.56,1.56,0,0,1-.57,1c-1.25,1.08-2.59,2.06-3.79,3.19-1.9,1.77-3.72,3.62-5.52,5.49-.22.24-.17.85-.1,1.25.24,1.41.55,2.8.9,4.53a7.42,7.42,0,0,1,1.15.45c1.59.82,3.35,1.69,3.56,3.64a62.79,62.79,0,0,1,.17,8.12,29.11,29.11,0,0,1-.82,3.69c-.36,2.15-.64,4.32-.95,6.49,2.82,1.55,3.55.44,3.56-2.21,0-.54,0-1.08.08-1.61a22.81,22.81,0,0,1,4.31-10.8c-.06,1.43-.42,2.81-.47,4.2,0,1.21-1.28,2.61.44,3.79L320,365c.13.36.24.6.3.85.83,3.39,1.28,6.89,3.56,9.79a35.34,35.34,0,0,1,3.43,5.36,13.71,13.71,0,0,0,3.48,4.45c1.94,1.56,3.81,3.2,5.69,4.85,2.33,2,4.64,4.12,6.94,6.2.9.81,1.6,1.95,2.63,2.47,6.11,3.06,12.11,6.32,18.43,9,2.87,1.21,5.72,2.45,8.69,3.39s6,1.7,9,2.48a73.3,73.3,0,0,0,8.94,2.09c4.52.57,9.09.79,13.64,1a7.08,7.08,0,0,0,3.34-1.06c1.59-.87,3-1.77,5-1.73a13.87,13.87,0,0,0,7.22-1.63c1.7-1,3.36-2,5.47-1.86a1.51,1.51,0,0,0,1.12-.51c1.68-2.11,4.12-2.62,6.53-3,3.28-.53,6.65-.57,9.89-1.26a44.76,44.76,0,0,0,7.7-2.68,4.11,4.11,0,0,0,2.28-1.87c.66-1.88,2.43-1.82,3.62-2,3-.57,5.17-2.85,4.76-5.84l-1.14.08-2.1,2.75c-2.88-2.21-4.7,1-7,.73,2.7-2.12,5.54-3.95,8.33-5.84a7.77,7.77,0,0,0,1.25-1.41l-.35-.38ZM181.62,298.62c.49-2.43,1-4.67,1.36-6.94.17-1.06.65-1.24,1.61-1.24,3,0,6.11.37,9-.28,3.94-.9,7.67-2.63,11.51-3.93,4.49-1.52,9-3.11,13.51-4.38,3.08-.86,6.31-1.2,9.46-1.78l5.42-1c.17,7,.33,13.7.5,20.44h-.37l-.35-4.12h-.66a11.54,11.54,0,0,0-.3,1.9q0,20.19,0,40.39c0,.53-.1,1.26.2,1.55,1.13,1.12.57,2.27.23,3.41-.53,1.79-1.11,3.55-1.67,5.35,1.08.14,2.21.64,2.86.28a1.21,1.21,0,0,1,1.74.26c.86,1.12,1.4.91,2-.19.12-.23.41-.36.75-.65v9.54c0,3.17,0,6.33,0,9.5s0,6.22,0,9.33-.21,6.18.35,9.68l.59-1.12c1.3,8.92,2.57,17.59,3.84,26.27h.43l.51-1.33c.08,1.16.15,2.28.23,3.39l.56,0,.66-4h.55l.61,6.49c1-2,1.74-3.66,2.51-5.28l.39,0c.33,2.26.65,4.51,1,6.76l.35.05,1.82-3.85c.1,1.54.17,2.68.25,3.82l.55.09,2.28-5.73.51,2.2.52,0,.35-4.46c.15.89.29,1.71.44,2.53h.45l1.23-3.83.85,0a14,14,0,0,1,.56-2.43,28.91,28.91,0,0,0,2.54-9.79c.23-4.49.29-9,.87-13.45.3-2.35,1.52-4.58,2.39-6.84a16.86,16.86,0,0,0,1-7.21,9.93,9.93,0,0,1,.4-4.57,11.79,11.79,0,0,0,.63-5.48c-.24-10.19-.62-20.38-.77-30.57a30,30,0,0,0-1.58-10.64,11.12,11.12,0,0,1-.79-4c0-3.2,0-6.42,1.29-9.49a10.56,10.56,0,0,0,.56-3.47c.28-6.86.57-13.72.71-20.58,0-2-.83-3.86-1.09-5.89a7.22,7.22,0,0,0-.74-1.64c-.66-1-1.82-1.44-2.33-2.25-1.17-1.88-3.54-7.24-3.54-7.24-.24.35-1.28,4.27-1.46,5l-1.22-2.9a23.6,23.6,0,0,1-1.38-4.19,14.26,14.26,0,0,0-.58,1.75l-.66.84c-.17-.27-.66-1.19-.82-1.43-.7-1-1.58-6-1.71-6.28a3.17,3.17,0,0,1-.16-.32c-.1-.45-.58-.89-.7-1.39a5,5,0,0,0-.92,2.85c-.34,3-1,3.77-4.25,3.78l.48-1.16a6.12,6.12,0,0,1-1.74,0c-.77-.26-2-.54-2.14-1.08-.46-1.45-1.44-1.11-2.39-1.12H235l0-.15,2.91-.76c-.28-.47-.52-.64-.75-.63a60.68,60.68,0,0,0-6.89.39c-9.42,1.47-18.8,3.2-28.23,4.6-11.83,1.77-23.48,4.83-35.52,5.31-1,0-2,.89-3.13,1.11-4,.82-8.1,1.52-12.15,2.31a6.94,6.94,0,0,0-1.56.69l.09.49,1.87.29-3,1.14.11.48,1.2.33-1.08.93.13.54h8.08a7.26,7.26,0,0,1-.51,2.2,12,12,0,0,0-1.91,7.44c.05,4,0,7.94.06,11.91.08,4.93.1,9.87.4,14.79.48,8,1.19,16,1.76,24.05.52,7.22,1,14.44,1.45,21.65.71,11,1.43,21.92,2.1,32.88.07,1.13.32,1.95,1.6,2.35l.86-1.67.88.67.95-2.38.44.93c1-.09,2,.09,2.69-.32a11.19,11.19,0,0,0,2.11-2.37l.7,1.2,2.14-2.79.77,1.55c.37-.81.65-1.42,1-2.09l1,1.6c.42-1.38.83-2.42,1.05-3.5,2.18-10.46,5.74-20.62,6.91-31.09,2.69-.41,5.47-.81,8.24-1.25,1.38-.22,2.73-.56,4.11-.78,4.65-.77,9.3-1.51,14-2.25.71-.12,1.52-.11,1.08-1.25l4.92-.87-1.9-1.23,6.54-.77,0-.41-1.87-1,5.8-.68v-.51l-2.74-1,3.73-.57v-.5l-2.67-1.05,3.68-.82-1.24-1.13,6.66-.82c-2-2.13-4.36-1.58-6.37-2.21l4.44-.74a6.49,6.49,0,0,0-2.86-2A27.5,27.5,0,0,0,221,328c-10.46.16-20.91.44-31.37.71-1.48,0-3,.22-4.43.33l-.1,1.6-5.25,1.26c-.71-3.23.24-6.94-.68-10.21l4.86-1,19.68-4.09c.36-.08.93-.12,1-.35.62-1.36,1.93-1.12,3-1.4.26-.07.66,0,.76-.19,1.13-1.73,3-1.18,4.58-1.61a4.23,4.23,0,0,0,.68-.3l-.16-1.49,4.38-.72c-.24-.78-.4-1.31-.57-1.85l1.71-.61-.43-1.89,6.76-1.77L223.05,300C209.67,298.83,195.83,298,181.62,298.62Zm91.95-66.53,6.33-2.16-2.37-.21c.62-1.92,2.62-.69,3.67-1.79l-2.85-.33c.17-.76.29-1.32.4-1.83l2.53-.47c-.93-1-3,.44-3.23-1.81l4.42-.62c-2.15-1.07-4.47.59-6.16-1.66l4.05-.66c-1.59-1-3.55.61-4.59-1.5l1.56-.6-2.77-.82.08-.44,3.73-.52-.05-.47h-4v-.27l1.68-.48,0-.28-13.18-.65,0-.12,9.14-1.13-.05-.46H256.52v-.14l10.41-.89-.05-.3H239a23.79,23.79,0,0,0,.54-3.58c0-7.08-.07-14.16-.15-21.23a1.92,1.92,0,0,0-.44-1.32,6.65,6.65,0,0,1-2.39-4.62c0-.43-.6-.82-1-1.33l-.86,1.79c-.7-.93,0-2.54-1.76-2.58l-.5,3.31a23.56,23.56,0,0,0-2.88-5.43l-.5.17q-.3,2.75-.62,5.5l-.6,0c-.08-.59-.15-1.19-.24-1.78s0-1.48-.35-1.66c-1.75-1-1.34-2.66-1.5-4.2l-2-.31a13.42,13.42,0,0,1,4.53-.9c4.82-.07,9.65,0,14.48,0,.59,0,1.17-.07,1.76-.11v-.42l-5.61-.42,0-.61h8.77l0-.49-3.1-.41v-.24H252l-2.72-1.38,6.1-1.2-.07-.79h-8.53v-.57l15.39-1.55v-.54l-7.72-.41,0-.49,12.42-1v-.53l-9.49-.63v-.3l10.24-.76,0-.59h-7.17l0-.21,7.76-1.2,0-.55-2.76-.29,0-.24,10.42-.78c-2.53-2.5-5.72-1.16-8.4-2l0-.53H274v-.68h-7.42v-.32l5-.23v-.64a7.81,7.81,0,0,0-1.32-.29c-9.22-.32-18.44-.74-27.66-.88-7.61-.11-15.23.18-22.84.18a28.89,28.89,0,0,0-10.38,1.66,25.43,25.43,0,0,1-5.58,1.11c-2.36.31-4.74.43-7.12.63v.26h8.17v.53c-6.58,0-13.16.07-19.75,0-6-.09-12,0-18.09-.64s-12.1,0-18.15.08c-.81,0-1.53.06-1.9,1.08a2.2,2.2,0,0,1-1.48,1.22,8.27,8.27,0,0,0-5,2.27,3.83,3.83,0,0,0-1.52,3.72c-3,.4-3.65,1.84-2,4.46-2,1.32-2.16,1.93-1.37,4.09.13.34.19.7.29,1.05a12.75,12.75,0,0,0,1,3.17,9.17,9.17,0,0,0,2.41,2.31c4.58,3.41,10.06,4.75,15.46,5.77,3.28.63,6.83-.29,10.27-.35,1,0,2.5.24,2.81.86,1.06,2.13,1.66,4.48,2.52,6.72a34.47,34.47,0,0,0,1.75,3.87c.75,1.4,1.77,2.66,2.41,4.11,1,2.28,1.67,4.71,2.68,7,1.23,2.77,3.74,5.09,2.74,8.72-3.4.28-7,.58-10.54.85Q139,218,108.63,220.28c-2.46.18-4.94.09-7.4.21a14.22,14.22,0,0,0-2.42.59l.06.69,6.24.55.06.46-7.33,1.15,0,.7,2.81.55-2.6.7,0,.6,4.65.7a6.27,6.27,0,0,0,4.6,6.43,5,5,0,0,1,1.45,1c2.76,2.44,5.75,4.43,9.49,5a9.74,9.74,0,0,1,2.31.68c.82.35,1.52.86.8,2,1.45.31,3.06.38,3.44,2.25,0,.1.26.18.42.21a31,31,0,0,0,5.16,1q9.17.24,18.34.15a41.82,41.82,0,0,0,7.81-.81c4.71-1,9.38-2.15,14.05-3.31,1.6-.39,3.12-1.14,4.73-1.45a89.19,89.19,0,0,1,9.2-1.4c6.08-.53,12.18-1,18.29-1.22,11.89-.44,23.74-1.35,35.59-2.38,4.78-.41,9.68-1.57,14.47.24a3,3,0,0,0,.94.15c4,.11,7.93.33,11.89.26a11.13,11.13,0,0,0,4.24-1.18,31.8,31.8,0,0,0,3.87-2.37ZM181.9,112.44l-3.75.32c-2.13.17-2.68,1.41-2.24,3.34a5.6,5.6,0,0,1-.67,4.22c-1.49,1.87-1.51,3.55.43,5a35.88,35.88,0,0,1,7.59,7,13.91,13.91,0,0,0,6.46,4.75c3.1,1.1,6.15.38,9.23.28a27.36,27.36,0,0,0,4.11-.53c1.36-.25,2.7-.59,4-1,1.1-.31,2.16-.76,3.26-1.06a7,7,0,0,1,2-.2c.73,0,1.46.27,2.19.28,1.1,0,2.45-.53,3.25-.07,1.73,1,3.52.6,5.27.79a3.46,3.46,0,0,0,3.37-1,1.23,1.23,0,0,1,1-.22c3.34.78,6-1.64,9.19-1.81.07,0,.13-.15.25-.29l-1.3-2,3-.16.06-.41-2.48-1.26.38-.21c-.17-.64-.35-1.29-.49-1.83L239,125.3c.84.54,1.93,1.3,3.33.2l-1.63-3.42c1.23-1.12,3.79-.55,3.7-2.86-.07-1.76-2-1.7-3.33-2.24l3.52-4.09c-2.26-1.26-3.56.91-5.24,1-.24-.51-.51-1.38-.67-1.36-1.45.18-1.91-1.21-2.9-1.69a9.18,9.18,0,0,0-2.38-.69c-.76-.14-1.84.14-2.25-.28-.73-.74-1.42-.48-2.19-.65-1.47-.31-2.5.61-3.71.71-4.32.37-8.66.61-12.75-1.39a3.39,3.39,0,0,0-1.36-.06c-1.66,0-3.53.48-4.92-.13-2.14-1-4.15-.67-6.27-.6-4.55.15-9.11.36-13.65.31C182.14,108,181.77,108.18,181.9,112.44Zm18.06,354c3.29-2.45,6.61-4.9,9.89-7.39a21.65,21.65,0,0,0,3.64-3.08,27.13,27.13,0,0,0,3.2-4.85c1.3-2.48,1.26-5.27,1-7.95a14.85,14.85,0,0,0-1.45-5.5c-1.25-2.41-4.08-3.09-6.29-4.25-1.43-.75-3.7-.5-5.4,0a31.08,31.08,0,0,0-6.67,3.11,18.7,18.7,0,0,0-3.19,2.87c-1,1-2.1,2-3.06,3.07-1.51,1.7-2.94,3.46-4.6,5.44-.45-2.7-.93-5.23-1.28-7.78-.29-2-.35-4.11-.66-6.15a14,14,0,0,0-1.07-4.06,4.16,4.16,0,0,0-2.19-1.73,1.22,1.22,0,0,0-1.75,1.05,3.86,3.86,0,0,1-1.08,2.33c-1.17.81-2.23,1.41-1.4,3.07.09.17-.16.48-.19.74a16.67,16.67,0,0,0-.38,4.41c.46,2.67,1.33,5.28,2,7.91a7.7,7.7,0,0,1,.36,1.37c.27,4.33.5,8.67.78,13a3.3,3.3,0,0,0,.53,1.74,5.49,5.49,0,0,1,1.2,3.64,28,28,0,0,0,.26,4.93c.36,2.34,1,4.65,1.44,7,.7,3.5,1.35,7,2.05,10.51.36,1.79,1.18,3.62,1,5.37-.25,2.91,1.44,4.8,2.81,6.89.79,1.2,1.79,1,2.21-.4s.44-2.91,2.08-3.6c.24-.1.42-.65.41-1a25.27,25.27,0,0,0-.25-3.8c-.43-2.44-1.15-4.83-1.49-7.28-.48-3.53-.73-7.08-1.06-10.63-.12-1.23-.2-2.48-.31-3.94,1.5.59,2.87,1,4.13,1.66,1.81.91,3.52,2,5.31,3,2,1.05,4.07,2,6.07,3,2.25,1.18,4.43,2.49,6.69,3.65a19,19,0,0,0,2.39.75c1.41.51,2.8,1.09,4.21,1.6a15.06,15.06,0,0,1,2.3.73c2.4,1.39,4.74,2.88,7.12,4.3a9.14,9.14,0,0,0,2.36,1.13,5.08,5.08,0,0,0,2.45.06,5.64,5.64,0,0,0,1.67-1.14c.57-1.44-.24-2.33-1.37-3s-2.39-1.44-3.59-2.14c-2.54-1.47-5.1-2.92-7.64-4.4-1.27-.74-2.49-1.57-3.75-2.32-1.07-.64-2.15-1.25-3.24-1.85-.72-.39-1.52-.66-2.2-1.12-2.23-1.52-4.35-3.21-6.64-4.65S202.43,467.86,200,466.46Zm193.09,3.14.31.06a28.16,28.16,0,0,0,1.28,2.91c2,3.42,3.84,6.92,6.08,10.15,1.88,2.71,4,5.41,7.41,6.39,4.85,1.39,9.74,2.63,14.84,2,3.21-.37,6.32-1.16,8.42-4.06.68-.93,1.57-2.13,2.55-2.34,1.71-.36,1.48-1.46,1.47-2.48-.06-3-.12-6-.38-8.94a41.52,41.52,0,0,0-6.68-19.58c-2.45-3.7-5.23-7.2-7.93-10.74-1.32-1.73-2.81-3.33-4.22-5s-3.07-.85-4.64-1.17c0,1.16.39,2.47-.07,2.93-1.21,1.18-.84,2.29-.22,3.33a19.33,19.33,0,0,0,2.56,3.23,5.74,5.74,0,0,1,1.95,4,3.53,3.53,0,0,0,.89,2.13,33.88,33.88,0,0,1,5.39,8.31c2.61,5.52,2.1,11.26,1.56,17a3.13,3.13,0,0,1-.76,1.56,31.86,31.86,0,0,1-2.58,2.86,5.86,5.86,0,0,1-6.26,1c-3.41-1.35-4.71-4.6-6.07-7.38-3.58-7.33-7.27-14.65-9.62-22.52-.23-.77-.55-1.51-.78-2.27-1.57-5.1-2-10.52-4.63-15.32-.55-1-1.09-1.73-2.12-1.38a4.62,4.62,0,0,0-1.8,1.7,13.91,13.91,0,0,0-1,2c-.41.75-1.14,1.46-1.21,2.23-.49,5.79-.87,11.6-1.25,17.4q-.5,7.38-.89,14.75c-.28,5.38-.12,10.78-1.31,16.11-.67,3-.81,6.13,1.16,8.9,1.06,1.5,1.37,1.59,2.36,0a36.32,36.32,0,0,0,2.09-4.13,16.36,16.36,0,0,0,1.56-3.92c.54-3.33.79-6.7,1.21-10.05S392.59,472.87,393.05,469.6Zm-77.56,18.3a36.37,36.37,0,0,1-9.26-5.81c-4.07-3.57-7.08-8-10.36-12.25a3.62,3.62,0,0,1-.56-1.15c-1-3.29-1.52-6.47-.33-10,1.38-4.07,4.54-6.83,6.66-10.34a22.73,22.73,0,0,1,4-4.28c3.52-3.35,5.7-8.05,10.49-10.13a24.83,24.83,0,0,0,4.82-2.89c.55-.4.65-1.41.95-2.14-.64-.19-1.38-.67-1.92-.51-1,.3-1.83,1.11-2.82,1.47-8.39,3.07-14.21,9.7-20.51,15.45a36.92,36.92,0,0,0-9.28,12.59c-1.74,4.1-1.76,8.08.43,11.72a43.53,43.53,0,0,0,11.25,12.89c3.24,2.38,6.58,4.62,9.95,6.81,2.14,1.39,4.43,2.55,6.64,3.84.35.2.81.45.92.78A32.38,32.38,0,0,1,318,499c.33,2,.21,4.15,2.44,5.26.6.29,1.51,1,1.72.82a3.73,3.73,0,0,0,1.11-2c.13-.57-.25-1.24-.3-1.87-.11-1.58-.18-3.15-.23-4.73,0-.63.15-1.27.09-1.89-.62-6.16-1.48-12.29-1.86-18.46a142,142,0,0,1,.09-14.59c.06-1.39.59-3.29,1.59-4a7.41,7.41,0,0,1,7.29-1.06,2.94,2.94,0,0,0,1.31,0c.33-.05.72-.32,1-.21,1.31.57,1.62-.25,1.83-1.24.25-1.21-.24-1.84-1.5-1.85-4.49-.06-9-.2-13.47-.18a7.68,7.68,0,0,0-7.37,5.25,15.22,15.22,0,0,0-.51,6.77c.42,3.91,1.22,7.78,1.95,11.65C313.88,480.34,314.68,484,315.49,487.9ZM154.84,447.3l.66.11a14.88,14.88,0,0,1,2.92-.84c3.45-.3,6.91-.53,10.38-.66,1.19-.05,2.13-.16,2.33-1.55a2.51,2.51,0,0,0-2.08-2.39c-4.1-.45-8.2-1-12.31-1.25-1.58-.11-2.22-.11-2.26-2.14a31.36,31.36,0,0,0-1.7-7.71c-.49-1.7-1.51-3.25-1.87-4.95-.28-1.28-1-1.7-1.94-1.6a2,2,0,0,0-1.79,2,12.9,12.9,0,0,1-1.26,3.14c-.26.61-.79,1.2-.8,1.81-.09,3.08,0,6.16,0,9.26-1.55.25-2.64.39-3.72.59-3.67.69-7.22,2-11,2.17a1.73,1.73,0,0,0-1.74,2.05,1.77,1.77,0,0,0,1.87,1.86c1.68.09,3.35.36,5,.55.25,0,.52,0,.78,0h8.77c0,4.81-.14,9.66,0,14.5a93.32,93.32,0,0,0,1.13,9.56c.37,2.6,1,5.17,1.28,7.78.37,3.66.39,7.35.75,11,.31,3,.86,6,1.37,9.05a2.47,2.47,0,0,0,2.68,1.7l.29,1.65c.36-.22.68-.3.77-.49,1.13-2.21,2.3-4.4,3.29-6.67a6.41,6.41,0,0,0,.36-2.8c-.15-2.8-.55-5.59-.63-8.4-.06-2.33.28-4.67.28-7,0-2-.15-3.93-.33-5.89-.1-1.06-.41-2.11-.58-3.18a2.47,2.47,0,0,1,.19-.86,4.9,4.9,0,0,0,.38-1.48c-.16-1.68-.52-3.35-.64-5-.19-2.58-.21-5.16-.36-7.74C155.24,451.37,155,449.34,154.84,447.3ZM453.5,476.09l-.47.16c-.1,1.49-.12,3-.31,4.46a12.5,12.5,0,0,1-.86,4c-1.17,2.28-2.08,4.79-4.26,6.44-.27.2-.38.62-.55.95a16,16,0,0,1-1.35,2.48c-1.13,1.41-2.49,2.64-3.59,4.08a7.69,7.69,0,0,0-1,2.6c-.05.18.35.65.63.74a5.81,5.81,0,0,0,4.65-.29,16.7,16.7,0,0,1,4.41-1.88,6.56,6.56,0,0,0,4.14-3c2-2.67,3.86-5.42,5.86-8.07,3.13-4.16,3.94-9.07,4.63-14a2.46,2.46,0,0,0-.2-1.08A43,43,0,0,0,455.15,458c-1.46-1.51-3.13-3.26-3.6-5.17-1.14-4.59.45-8.65,3.84-12,.46-.45.85-1,1.33-1.4,1.68-1.55,3.35-3.12,5.1-4.6a6.8,6.8,0,0,0,2.56-3.34c.33-1.17-.12-1.62-1.13-1.41a22.58,22.58,0,0,0-5,1.43c-2.55,1.19-4.94,2.71-7.41,4.07-4.9,2.68-8,6.9-10.19,11.89-1.86,4.16-.93,8,.9,11.85,2,4.24,6.2,6.5,8.65,10.26A69.32,69.32,0,0,1,453.5,476.09Zm-93.19,1.35c1.56-.28,3.49-.7,5.44-1,5.91-.86,11.54-9,10.1-14.57a3.62,3.62,0,0,1,0-1.76c.47-1.67-.17-3.11-.71-4.63-1-2.88-3.19-4.78-5.34-6.7a7.78,7.78,0,0,0-2.75-1.51c-3.4-1.09-6.87-1.61-10.39-.45s-7.14,1.5-9.9,4.62c-3.14,3.55-4.72,7.46-4.14,12,.82,6.48,4.83,10.76,10.6,13.5a1.55,1.55,0,0,0,.47.12Zm-101.37.91,7-1.65c1.12-.26,2.42-.25,3.32-.85a29.24,29.24,0,0,0,3.3-3.2c2.88-2.64,3.8-6,3.77-9.78,0-1.47.19-2.95.29-4.43a1.4,1.4,0,0,0-.09-.61c-.91-1.9-1.53-4-2.81-5.63-2.3-2.84-4.9-5.48-8.86-6-1.41-.18-2.91-.85-4.19-.55-4.27,1-9,1.2-11.79,5.45a43.9,43.9,0,0,0-3.09,4.55,18.77,18.77,0,0,0-1.44,5,7.21,7.21,0,0,0,.53,2.44,8.08,8.08,0,0,1,.15,1.1c.24,4.05,2.38,7.14,5.2,9.77,1.23,1.15,3.17,1.6,4.26,2.83C255.82,478.27,257.31,478,258.94,478.35Z" transform="translate(-34.41 -23.45)"/><path class="cls-2" d="M370.26,155.17c-.38.59-.57,1.26-.91,1.35-1.62.41-3,1.41-5,1-1.71-.38-3.66.49-5.52.6-3.73.22-7.47.5-11.19.35-2-.08-4-1-6.19-1.62,4.88-6.64,11-11.26,17.44-15.17a24.29,24.29,0,0,1,3.09,1.67,24,24,0,0,1,2.58,2.58c-2.79.57-5.52.43-7.34,2.84,3.37,1,6.27,2.87,9.76,2.93a3.22,3.22,0,0,1,2.06,1,13.73,13.73,0,0,1,1.63,2.45h0Z" transform="translate(-34.41 -23.45)"/><path class="cls-2" d="M449.08,260.22c-1.47-2.12-2.91-4.2-4.37-6.27-.54-.77-1.18-1.15-2,0l-3.6-5.73.19-.52c4.36.88,8.74,1.67,13.08,2.66a23.37,23.37,0,0,1,11.53,6.07l-5.57.94a1,1,0,0,1-.48,0c-3.59-1.34-6.08.78-8.62,2.73C449.13,260.23,449,260.24,449.08,260.22Z" transform="translate(-34.41 -23.45)"/><path class="cls-2" d="M364.72,120.65A39.46,39.46,0,0,0,366,125c.33.81,1,2,1.62,2,.82.11,1.76-.7,3-1.3,1.42.14,3.41.46,5.41.49a9.64,9.64,0,0,0,2.8-.84c.2-.06.39-.24.57-.23,2.16.16,4.43,0,6.45.62,3.81,1.18,7.91.17,11.59,1.8a26.75,26.75,0,0,1,3.8,2c.46.3.59,1.12.87,1.7a9,9,0,0,1-2.88,1.16c-.68,0-1.49-.73-2.11-1.29-1.61-1.47-3.34-2.3-5.49-1.34-1.58-2.35-4.67-2.64-7.75-1.35-1.06-1.63-2.57-2-4.85-1.3l-1.8,3.09c-2.35-2-3.65-2-5.85,0s-4.41,1-6.68,1c-.3,0-.63-.79-.87-1.25a1.59,1.59,0,0,0-1.87-1.07c-.53.07-1.19-.81-1.78-1.26l.27-.37a2.84,2.84,0,0,0,.65.38c.63.18,1.59.63,1.85.38.74-.7,1.51-1.76.62-2.79s-.6-1.3.17-2C364.27,122.71,364.33,121.78,364.72,120.65Z" transform="translate(-34.41 -23.45)"/><path class="cls-2" d="M359.08,136.35l-1.18-3.61c-1.21.83-2.23,1.55-3.27,2.25-1.26.83-1.93.57-2.74-.7-.47-.73-1.34-1.2-1.94-1.87a4.2,4.2,0,0,1-.77-1.5c-.24-.85-.35-1.74-.6-3,1.44,1.6,2.67,2.94,3.88,4.29.14.15.2.45.36.5.61.19,1.24.31,1.86.46.06-.54.32-1.17.13-1.6a86.27,86.27,0,0,0-3.82-8.07,67.32,67.32,0,0,0-4.29-6c.59-.07,2.14.84,3.24,2.3,1.64,2.17,3.3,4.33,4.75,6.62a2.2,2.2,0,0,0,2.88.93,2.46,2.46,0,0,0,.92-2.19c-.48-2.16-1.27-4.24-1.94-6.36-.11-.33-.24-.66-.35-1l.41-.17,3.86,8.68-2.09.39c1.13,1.75,2.06,3.41,3.2,4.91.86,1.12,1,2-.11,3C360.75,135.18,360,135.7,359.08,136.35Z" transform="translate(-34.41 -23.45)"/><path class="cls-2" d="M318.65,197.39c.68-1.42,1.29-2.59,1.78-3.82.14-.35-.09-.84-.15-1.27a4.2,4.2,0,0,0-1.31.32c-.67.42-1.24,1-1.88,1.47a3.42,3.42,0,0,1-1.29.61c2.17-5,5.9-8.52,10.71-11.57-1,4.92-1.95,9.56-2.94,14.37l-1.27-1.42a5.09,5.09,0,0,0-.94,1.44c-.27,1.19-.22,2.46-.55,3.63a18.64,18.64,0,0,1-1.4,3l-.62-.24c.23-1.16.46-2.32.67-3.48S320,198,318.65,197.39Z" transform="translate(-34.41 -23.45)"/><path class="cls-2" d="M349.41,137.57a5.15,5.15,0,0,0-2.29,4.5,5.51,5.51,0,0,1-1.89,4.73,15,15,0,0,0-.93-3.42c-.87-1.61-2-.5-3.08.14-.68-3.76-4.22-2.66-6.62-3.94,3.85-2.07,7.23.34,10.86,1a32.92,32.92,0,0,0-.06-4.14c-.06-.47-.72-1-1.21-1.27-2.39-1.49-4.82-2.93-7.13-4.56A24.31,24.31,0,0,1,349.41,137.57Z" transform="translate(-34.41 -23.45)"/><path class="cls-2" d="M453.34,390.79c-1.64,2.06-3.24,4.15-4.95,6.14a1.58,1.58,0,0,1-1.51-.1,1.56,1.56,0,0,0-2.51,0c-2,2.69-4.87,2.5-7.67,2.6a23.51,23.51,0,0,1-2.52-.17c1.63-1.69,2.84-3.73,5.71-3.3.83.12,1.81-.68,2.71-1.06a12.06,12.06,0,0,1,1.68-.68c1.7-.4,3.34-.79,4.57-2.24a4,4,0,0,1,4.54-1.09Z" transform="translate(-34.41 -23.45)"/><path class="cls-2" d="M314.86,187.58c3.56-4.33,6.56-9.27,12.51-11.29-.25,3.15-2.67,4.35-4.56,6-2.11,1.78-4.22,3.55-6.36,5.29a4.61,4.61,0,0,1-1.34.46Z" transform="translate(-34.41 -23.45)"/><path class="cls-2" d="M408.54,164.84a7.82,7.82,0,0,1,2-.84,3.7,3.7,0,0,1,2.29.25c1.42,1,2.63,2.27,4,3.35.81.64,1.75,1.14,2.93,1.89a14.93,14.93,0,0,1-1.74.92,7.93,7.93,0,0,1-1.69.35c-.34.05-.82.17-1,0-1.95-1.55-3.87-3.14-5.76-4.75A7.49,7.49,0,0,1,408.54,164.84Z" transform="translate(-34.41 -23.45)"/><path class="cls-2" d="M320.18,157.66c3.28-1.4,6.57-2.78,9.84-4.22,1.3-.57,2,.26,2.86,1,.46.38,1,.72,1.46,1.09a3.6,3.6,0,0,1-4.55,1.22c-2.39-1.05-4.59-.17-6.82.55-.87.28-1.73.6-2.6.9Z" transform="translate(-34.41 -23.45)"/><path class="cls-2" d="M323.21,164.63a18,18,0,0,1,8.84-4.12C329.87,164.19,326.07,166,323.21,164.63Z" transform="translate(-34.41 -23.45)"/><path class="cls-2" d="M364.27,139.11c2.38-1.66,3.16-1.55,4.87.63l1.9,2.43Z" transform="translate(-34.41 -23.45)"/><path class="cls-2" d="M334.57,147.63c.91-.08,1.69-.19,2.47-.19a2.58,2.58,0,0,1,1.49.3,1.28,1.28,0,0,1,.11,1.26,2.16,2.16,0,0,1-1.41.84A2.54,2.54,0,0,1,334.57,147.63Z" transform="translate(-34.41 -23.45)"/><path class="cls-2" d="M203.33,214.49c-1.23-10.79-2.44-21.33-3.66-32.05l18-2.4v3l-1.37-.4a4.58,4.58,0,0,0-.23.92c-.1,3.69-.22,7.38-.25,11.07-.05,5.73-.08,11.47,0,17.2,0,1.5-.5,1.88-1.91,1.94C210.56,213.9,207.21,214.21,203.33,214.49Z" transform="translate(-34.41 -23.45)"/><path class="cls-2" d="M216.47,176.28c2.17-.33,4.33-.68,6.5-1,.38,0,.81.24,1.21.36-.39.23-.77.65-1.17.66-2.18.07-4.36,0-6.54,0Z" transform="translate(-34.41 -23.45)"/><path class="cls-2" d="M219.62,178.34v2.53c-.15-1.5-.83-2-2.39-1.75a9.36,9.36,0,0,1-3.34-.31Z" transform="translate(-34.41 -23.45)"/><path class="cls-2" d="M221.52,180.36c-.07-.86.07-1.35,0-2.21,0-.12.16-.74.35-.72s.18.32.18.51c0,.77.21,1.56.16,2.34Z" transform="translate(-34.41 -23.45)"/><path class="cls-2" d="M189.41,461.68a5.19,5.19,0,0,0,.2-1c-.63-4,1.77-6.66,4-9.44a42.47,42.47,0,0,1,3.63-4.72c2.35-2.23,4.79-4.48,8.27-4.87.5-.06,1.29-.33,1.45-.13.61.8,1.48,1.8,1.4,2.63a12.26,12.26,0,0,1-1.48,4.44,24.17,24.17,0,0,1-3,4,15,15,0,0,1-2.53,2.31,44.88,44.88,0,0,1-4.44,2.94c-2.1,1.2-4.27,2.25-6.41,3.36C190.26,461.35,190,461.44,189.41,461.68Z" transform="translate(-34.41 -23.45)"/><path class="cls-2" d="M350.5,459.93a47,47,0,0,1,1.75-6.39,5.86,5.86,0,0,1,6.44-3.24c3.68,1,5.66,3.31,6.73,6.9a12.85,12.85,0,0,1-.16,8.61,9.18,9.18,0,0,1-7,5.92,3.83,3.83,0,0,1-2.61-.91C352.11,468.12,350.71,464.4,350.5,459.93Z" transform="translate(-34.41 -23.45)"/><path class="cls-2" d="M260.27,471.25c-3.31.53-6.08-2.31-7.29-5.46a12.81,12.81,0,0,1-.75-1.91c-.88-3.91-.51-7.66,1.93-10.94.67-.89,1.9-1.94,2.87-1.94,2.68,0,5.42-.91,8,1.09,3.26,2.5,4.91,8.53,3.62,12.12a15,15,0,0,1-2.8,5A6.88,6.88,0,0,1,260.27,471.25Z" transform="translate(-34.41 -23.45)"/></g></svg>